<svg width="46" height="46" viewBox="0 0 46 46" fill="none" xmlns="http://www.w3.org/2000/svg">
<path fill-rule="evenodd" clip-rule="evenodd" d="M14.2026 1.72043C9.09725 4.08602 8.17395 10.672 8.14679 14.2204L17.7328 10.1613L14.2297 1.66667C25.255 -3.01075 38.2084 2.55376 42.9336 14.0054C47.6859 25.4301 42.4991 38.6828 31.4738 43.3602L28.1879 35.4032L18.7648 39.3817C22.3765 42.6613 26.6128 44.8118 30.7677 43.629C25.7982 45.0806 21.5075 43.1989 17.4613 40.0538L11.4055 41.6129L16.1306 38.8441C12.9262 35.7258 11.5141 33.5215 9.20587 28.871L2.93284 30.6989L8.74422 27.6613C7.38642 24.1935 6.57175 19.6774 6.5989 16.4516C4.80661 16.7742 2.22679 17.957 0.407344 18.2796C2.17248 17.1237 4.88807 15.9946 6.65321 14.8118C7.11486 8.79032 9.69468 3.65591 14.2026 1.72043ZM18.3846 11.7204L8.14679 16.0484C8.28257 20 9.45027 23.9247 10.5908 26.9892L22.6209 21.9355L18.3846 11.7204ZM23.1097 23.2258L11.1339 28.2796C13.1978 32.9839 15.3703 35.8333 17.5699 38.1989L27.5633 33.9785L23.1097 23.2258ZM14.4741 1.58602C19.6609 -0.215054 24.7662 3.62903 27.2646 6.10215L17.7328 10.1344L17.6514 10.2151L18.276 11.7473L28.5138 7.39247C31.2022 10.2688 33.1303 13.871 34.4881 16.8548L22.5666 21.9355L22.5938 21.9892H22.4851L23.0011 23.2258L34.9769 18.1183C36.8506 22.957 37.3938 26.5323 37.5024 29.8118L27.4275 34.086L28.0521 35.4839L28.1879 35.4301V35.457L37.5024 31.5054C37.258 36.3172 35.8459 40.8065 32.1798 43.0645L32.207 43.0376C36.5791 40.457 38.2356 36.0215 38.8873 30.9946L43.8569 28.871C44.047 28.2258 44.1827 27.5806 44.2914 26.9355L38.996 29.1935C38.996 24.6774 38.4528 22.2849 36.8235 17.3387L43.1508 14.6505C43.0694 14.4355 42.9879 14.2204 42.9064 14.0054C42.7978 13.7634 42.6892 13.5215 42.5806 13.2796L36.2804 15.9677C34.7596 12.5 32.207 8.8172 29.9259 6.55914L35.2756 4.27419C34.8139 3.92473 34.3251 3.60215 33.8363 3.30645L28.731 5.45699C24.2774 1.6129 19.0906 -0.107527 14.6642 1.47849C14.6099 1.53226 14.5284 1.55914 14.4741 1.58602ZM22.811 0C35.4114 0 45.622 10.1075 45.622 22.5806C45.622 35.0538 35.4114 45.1613 22.811 45.1613C10.2106 45.1613 0 35.0538 0 22.5806C0 10.1075 10.2378 0 22.811 0Z" fill="#004191"/>
</svg>
